# xmcd
#
# Track frame offsets:
#	150
#	20513
#	46170
#	66543
#	92213
#
# Disc length: 1458 seconds
#
# Revision: 1
# Processed by: cddbd v1.5.1PL0 Copyright (c) Steve Scherf et al.
# Submitted via: CDex 1.50Beta5
#
DISCID=3f05b005
DTITLE=BEGIN - オジー自慢のオリオンビール(エイサー・バージョン)
DYEAR=2003
DGENRE=
TTITLE0=オジー自慢のオリオンビール(エイサー・バージョン)
TTITLE1=オバー自慢の爆弾鍋(エイサー・バージョン)
TTITLE2=オジー自慢のオリオンビール(エイサー・バージョン)(オリジナル・カラオケ)
TTITLE3=オバー自慢の爆弾鍋(エイサー・バージョン)(オリジナル・カラオケ)
TTITLE4=オジー自慢のオリオンビール(オリジナル・カラオケ)
EXTD=
EXTT0=
EXTT1=
EXTT2=
EXTT3=
EXTT4=
PLAYORDER=
